<?xml version="1.0" encoding="UTF-8"?>
<!DOCTYPE svg PUBLIC "-//W3C//DTD SVG 1.1//EN" "http://www.w3.org/Graphics/SVG/1.1/DTD/svg11.dtd">
<svg version="1.1" xmlns="http://www.w3.org/2000/svg" xmlns:xlink="http://www.w3.org/1999/xlink" x="0" y="0" width="362" height="50" viewBox="0, 0, 362, 50">
  <g id="Layer_1" transform="translate(-71, -71)">
    <g>
      <path d="M84.5,72.5 L132.5,72.5 C139.127,72.5 144.5,77.873 144.5,84.5 L144.5,108.5 C144.5,115.127 139.127,120.5 132.5,120.5 L84.5,120.5 C77.873,120.5 72.5,115.127 72.5,108.5 L72.5,84.5 C72.5,77.873 77.873,72.5 84.5,72.5 z" fill="#FFFFFF"/>
      <path d="M84.5,72.5 L132.5,72.5 C139.127,72.5 144.5,77.873 144.5,84.5 L144.5,108.5 C144.5,115.127 139.127,120.5 132.5,120.5 L84.5,120.5 C77.873,120.5 72.5,115.127 72.5,108.5 L72.5,84.5 C72.5,77.873 77.873,72.5 84.5,72.5 z" fill-opacity="0" stroke="#000000" stroke-width="1"/>
    </g>
    <g>
      <path d="M372.5,72.5 L420.5,72.5 C427.127,72.5 432.5,77.873 432.5,84.5 L432.5,108.5 C432.5,115.127 427.127,120.5 420.5,120.5 L372.5,120.5 C365.873,120.5 360.5,115.127 360.5,108.5 L360.5,84.5 C360.5,77.873 365.873,72.5 372.5,72.5 z" fill="#FFFFFF"/>
      <path d="M372.5,72.5 L420.5,72.5 C427.127,72.5 432.5,77.873 432.5,84.5 L432.5,108.5 C432.5,115.127 427.127,120.5 420.5,120.5 L372.5,120.5 C365.873,120.5 360.5,115.127 360.5,108.5 L360.5,84.5 C360.5,77.873 365.873,72.5 372.5,72.5 z" fill-opacity="0" stroke="#000000" stroke-width="1"/>
    </g>
    <text transform="matrix(1, 0, 0, 1, 108, 96)">
      <tspan x="-19.194" y="-6" font-family="HelveticaNeue-Medium" font-size="14" fill="#000000">Blood</tspan>
      <tspan x="-26.978" y="11" font-family="HelveticaNeue-Medium" font-size="14" fill="#000000">analyzer</tspan>
    </text>
    <text transform="matrix(1, 0, 0, 1, 396, 96)">
      <tspan x="-10.5" y="4.5" font-family="HelveticaNeue-Medium" font-size="14" fill="#000000">LIS</tspan>
    </text>
    <g>
      <path d="M153.5,96.5 L351.5,96.5" fill-opacity="0" stroke="#000000" stroke-width="1"/>
      <path d="M153.5,93.5 L145.5,96.5 L153.5,99.5 z" fill="#000000" fill-opacity="1" stroke="#000000" stroke-width="1" stroke-opacity="1"/>
      <path d="M351.5,99.5 L359.5,96.5 L351.5,93.5 z" fill="#000000" fill-opacity="1" stroke="#000000" stroke-width="1" stroke-opacity="1"/>
    </g>
    <text transform="matrix(1, 0, 0, 1, 252, 96)">
      <tspan x="-17.045" y="-2" font-family="HelveticaNeue-Medium" font-size="10" fill="#000000">RS-232</tspan>
    </text>
  </g>
</svg>
