<?xml version="1.0" encoding="UTF-8"?>
<!DOCTYPE svg PUBLIC "-//W3C//DTD SVG 1.1//EN" "http://www.w3.org/Graphics/SVG/1.1/DTD/svg11.dtd">
<svg version="1.1" xmlns="http://www.w3.org/2000/svg" xmlns:xlink="http://www.w3.org/1999/xlink" x="0" y="0" width="362" height="52.5" viewBox="0, 0, 362, 52.5">
  <g id="Layer_1" transform="translate(-71, -371)">
    <g>
      <path d="M84.5,372.5 L132.5,372.5 C139.127,372.5 144.5,377.873 144.5,384.5 L144.5,408.5 C144.5,415.127 139.127,420.5 132.5,420.5 L84.5,420.5 C77.873,420.5 72.5,415.127 72.5,408.5 L72.5,384.5 C72.5,377.873 77.873,372.5 84.5,372.5 z" fill="#FFFFFF"/>
      <path d="M84.5,372.5 L132.5,372.5 C139.127,372.5 144.5,377.873 144.5,384.5 L144.5,408.5 C144.5,415.127 139.127,420.5 132.5,420.5 L84.5,420.5 C77.873,420.5 72.5,415.127 72.5,408.5 L72.5,384.5 C72.5,377.873 77.873,372.5 84.5,372.5 z" fill-opacity="0" stroke="#000000" stroke-width="1"/>
    </g>
    <g>
      <path d="M372.5,372.5 L420.5,372.5 C427.127,372.5 432.5,377.873 432.5,384.5 L432.5,408.5 C432.5,415.127 427.127,420.5 420.5,420.5 L372.5,420.5 C365.873,420.5 360.5,415.127 360.5,408.5 L360.5,384.5 C360.5,377.873 365.873,372.5 372.5,372.5 z" fill="#FFFFFF"/>
      <path d="M372.5,372.5 L420.5,372.5 C427.127,372.5 432.5,377.873 432.5,384.5 L432.5,408.5 C432.5,415.127 427.127,420.5 420.5,420.5 L372.5,420.5 C365.873,420.5 360.5,415.127 360.5,408.5 L360.5,384.5 C360.5,377.873 365.873,372.5 372.5,372.5 z" fill-opacity="0" stroke="#000000" stroke-width="1"/>
    </g>
    <text transform="matrix(1, 0, 0, 1, 108, 396)">
      <tspan x="-19.194" y="-6" font-family="HelveticaNeue-Medium" font-size="14" fill="#000000">Blood</tspan>
      <tspan x="-26.978" y="11" font-family="HelveticaNeue-Medium" font-size="14" fill="#000000">analyzer</tspan>
    </text>
    <text transform="matrix(1, 0, 0, 1, 396, 396)">
      <tspan x="-10.5" y="4.5" font-family="HelveticaNeue-Medium" font-size="14" fill="#000000">LIS</tspan>
    </text>
    <g>
      <path d="M153.5,396.5 L207.5,396.5" fill-opacity="0" stroke="#000000" stroke-width="1"/>
      <path d="M153.5,393.5 L145.5,396.5 L153.5,399.5 z" fill="#000000" fill-opacity="1" stroke="#000000" stroke-width="1" stroke-opacity="1"/>
      <path d="M207.5,399.5 L215.5,396.5 L207.5,393.5 z" fill="#000000" fill-opacity="1" stroke="#000000" stroke-width="1" stroke-opacity="1"/>
    </g>
    <text transform="matrix(1, 0, 0, 1, 180, 396)">
      <tspan x="-17.045" y="-2" font-family="HelveticaNeue-Medium" font-size="10" fill="#000000">RS-232</tspan>
    </text>
    <g>
      <path d="M297.5,396.5 L351.5,396.5" fill-opacity="0" stroke="#000000" stroke-width="1"/>
      <path d="M297.5,393.5 L289.5,396.5 L297.5,399.5 z" fill="#000000" fill-opacity="1" stroke="#000000" stroke-width="1" stroke-opacity="1"/>
      <path d="M351.5,399.5 L359.5,396.5 L351.5,393.5 z" fill="#000000" fill-opacity="1" stroke="#000000" stroke-width="1" stroke-opacity="1"/>
    </g>
    <text transform="matrix(1, 0, 0, 1, 324, 385)">
      <tspan x="-8.89" y="-3" font-family="HelveticaNeue-Medium" font-size="10" fill="#000000">Null</tspan>
      <tspan x="-17.5" y="9" font-family="HelveticaNeue-Medium" font-size="10" fill="#000000">modem</tspan>
    </text>
    <g>
      <path d="M228.5,372.5 L276.5,372.5 C283.127,372.5 288.5,377.873 288.5,384.5 L288.5,408.5 C288.5,415.127 283.127,420.5 276.5,420.5 L228.5,420.5 C221.873,420.5 216.5,415.127 216.5,408.5 L216.5,384.5 C216.5,377.873 221.873,372.5 228.5,372.5 z" fill="#FFFFFF"/>
      <path d="M228.5,372.5 L276.5,372.5 C283.127,372.5 288.5,377.873 288.5,384.5 L288.5,408.5 C288.5,415.127 283.127,420.5 276.5,420.5 L228.5,420.5 C221.873,420.5 216.5,415.127 216.5,408.5 L216.5,384.5 C216.5,377.873 221.873,372.5 228.5,372.5 z" fill-opacity="0" stroke="#000000" stroke-width="1"/>
    </g>
    <text transform="matrix(1, 0, 0, 1, 252, 400.75)">
      <tspan x="-24.766" y="-8.75" font-family="HelveticaNeue-Medium" font-size="14" fill="#000000">Antigen</tspan>
      <tspan x="-14.007" y="8.25" font-family="HelveticaNeue-Medium" font-size="14" fill="#000000">Plus</tspan>
    </text>
  </g>
</svg>
